<svg width="196" height="195" viewBox="0 0 196 195" fill="none" xmlns="http://www.w3.org/2000/svg">
<g filter="url(#filter0_d_59_8440)">
<path d="M67.8117 188.527C55.8889 188.77 44.0678 186.29 33.2474 181.277C23.6973 176.93 15.4632 170.14 9.37674 161.593C3.66632 153.475 0.648599 143.769 0.749234 133.844C0.514406 126.028 2.27902 118.281 5.87592 111.338C9.47281 104.395 14.7829 98.4849 21.303 94.1682C35.0055 84.5015 53.2876 77.8194 76.1493 74.1219L120.374 65.277C120.374 56.2145 116.749 43.527 98.6242 43.527C85.9367 43.527 80.4992 50.777 75.0617 58.2445L11.6242 58.027C12.1586 50.2595 14.3133 42.69 17.9499 35.8057C21.9561 29.3207 27.138 23.6409 33.2292 19.0582C41.3092 12.9857 50.3958 8.38418 60.0724 5.46445C72.9315 1.58651 86.3197 -0.248332 99.748 0.0269538C113.336 -0.235203 126.886 1.53648 139.949 5.28321C150.091 8.14625 159.528 13.0838 167.662 19.7832C174.915 25.9639 180.52 33.8484 183.975 42.7295C187.588 52.2428 189.377 62.3514 189.249 72.527V188.527H120.374V163.152C117.017 168.548 112.72 173.3 107.687 177.181C102.293 180.843 96.3784 183.672 90.1418 185.573C82.8886 187.671 75.3611 188.667 67.8117 188.527ZM89.5617 146.839C102.249 146.839 111.312 137.777 116.749 126.902C119.305 121.791 120.374 112.402 120.374 101.527C105.874 101.527 65.9992 108.777 65.9992 128.714C65.9992 139.589 76.8742 146.839 89.5617 146.839Z" fill="white"/>
<path d="M67.8294 187.574L67.8109 187.574L67.7924 187.574C56.0144 187.814 44.3369 185.365 33.6479 180.412L33.6421 180.41C24.2454 176.133 16.1434 169.452 10.1543 161.042C4.55989 153.088 1.60349 143.578 1.70209 133.853L1.70228 133.834L1.70171 133.815C1.47175 126.161 3.19976 118.575 6.72202 111.776C10.2443 104.977 15.4442 99.1899 21.829 94.9628L21.8408 94.955L21.8523 94.9468C35.4002 85.3892 53.5313 78.7453 76.3014 75.0626L76.3188 75.0598L76.3361 75.0563L120.561 66.2113L121.327 66.0581V65.277C121.327 60.6455 120.405 54.9738 117.063 50.4383C113.682 45.8499 107.936 42.5741 98.6242 42.5741C92.0742 42.5741 87.3406 44.4535 83.5489 47.3258C79.9269 50.0694 77.1973 53.6987 74.5782 57.2899L12.6542 57.0776C13.2899 49.8096 15.3705 42.7381 18.7774 36.2792C22.719 29.9065 27.8142 24.3246 33.8021 19.8197C41.7925 13.8146 50.7783 9.26413 60.3475 6.37677C73.1111 2.52763 86.3999 0.706416 99.7285 0.979657L99.7474 0.980046L99.7664 0.97968C113.259 0.719356 126.714 2.47866 139.687 6.19919L139.69 6.20027C149.703 9.02674 159.019 13.9007 167.05 20.5136C174.179 26.5905 179.689 34.3415 183.086 43.0717C186.655 52.4721 188.423 62.4605 188.296 72.515V72.527V187.574H121.327V163.152V159.817L119.565 162.649C116.273 167.94 112.061 172.6 107.128 176.408C101.822 180.008 96.0042 182.789 89.8707 184.659C82.7113 186.73 75.2811 187.713 67.8294 187.574ZM121.327 101.527V100.574H120.374C113.02 100.574 99.3145 102.404 87.4222 106.749C81.4756 108.922 75.9161 111.747 71.8273 115.339C67.7274 118.941 65.0463 123.374 65.0463 128.714C65.0463 134.504 67.9516 139.302 72.4574 142.622C76.95 145.933 83.0468 147.792 89.5617 147.792C102.773 147.792 112.091 138.349 117.602 127.328C118.949 124.634 119.872 120.888 120.464 116.503C121.059 112.103 121.327 106.992 121.327 101.527Z" stroke="#1A243F" stroke-width="1.90581"/>
</g>
<defs>
<filter id="filter0_d_59_8440" x="0.728516" y="0" width="194.527" height="194.543" filterUnits="userSpaceOnUse" color-interpolation-filters="sRGB">
<feFlood flood-opacity="0" result="BackgroundImageFix"/>
<feColorMatrix in="SourceAlpha" type="matrix" values="0 0 0 0 0 0 0 0 0 0 0 0 0 0 0 0 0 0 127 0" result="hardAlpha"/>
<feOffset dx="6" dy="6"/>
<feComposite in2="hardAlpha" operator="out"/>
<feColorMatrix type="matrix" values="0 0 0 0 0.913725 0 0 0 0 0.447059 0 0 0 0 0.298039 0 0 0 1 0"/>
<feBlend mode="normal" in2="BackgroundImageFix" result="effect1_dropShadow_59_8440"/>
<feBlend mode="normal" in="SourceGraphic" in2="effect1_dropShadow_59_8440" result="shape"/>
</filter>
</defs>
</svg>
