<svg width="6" height="12" viewBox="0 0 6 12" fill="none" xmlns="http://www.w3.org/2000/svg">
<path d="M1.59057 10.9919L1.26517 11.3715L0.505913 10.7207L0.831309 10.3411L1.59057 10.9919ZM4.83906 6.4337L5.21869 6.75909V6.75909L4.83906 6.4337ZM4.83906 5.56598L5.21869 5.24058L4.83906 5.56598ZM0.83131 1.65857L0.505914 1.27894L1.26517 0.628147L1.59057 1.00778L0.83131 1.65857ZM0.831309 10.3411L4.45943 6.1083L5.21869 6.75909L1.59057 10.9919L0.831309 10.3411ZM4.45943 5.89137L0.83131 1.65857L1.59057 1.00778L5.21869 5.24058L4.45943 5.89137ZM4.45943 6.1083C4.51293 6.04589 4.51293 5.95379 4.45943 5.89137L5.21869 5.24058C5.59318 5.67749 5.59317 6.32219 5.21869 6.75909L4.45943 6.1083Z" fill="#E9724C"/>
</svg>
