<svg width="9" height="18" viewBox="0 0 9 18" fill="none" xmlns="http://www.w3.org/2000/svg">
<path d="M7.56975 15.5119L8.05784 16.0813L6.91896 17.0575L6.43086 16.4881L7.56975 15.5119ZM1.55813 9.65079L0.988684 10.1389H0.988684L1.55813 9.65079ZM1.55813 8.34921L0.988684 7.86112H0.988684L1.55813 8.34921ZM6.43086 1.51191L6.91896 0.942464L8.05784 1.91865L7.56975 2.48809L6.43086 1.51191ZM6.43086 16.4881L0.988684 10.1389L2.12757 9.1627L7.56975 15.5119L6.43086 16.4881ZM0.988684 7.86112L6.43086 1.51191L7.56975 2.48809L2.12757 8.8373L0.988684 7.86112ZM0.988684 10.1389C0.42695 9.48353 0.426949 8.51647 0.988684 7.86112L2.12757 8.8373C2.04732 8.93092 2.04732 9.06908 2.12757 9.1627L0.988684 10.1389Z" fill="#49545C"/>
</svg>
