<svg width="38" height="38" viewBox="0 0 38 38" fill="none" xmlns="http://www.w3.org/2000/svg">
<path d="M25 15C25 13.4087 24.3679 11.8826 23.2426 10.7574C22.1174 9.63214 20.5913 9 19 9C17.4087 9 15.8826 9.63214 14.7574 10.7574C13.6321 11.8826 13 13.4087 13 15C13 22 10 24 10 24H28C28 24 25 22 25 15Z" stroke="white" stroke-width="1.5" stroke-linecap="round" stroke-linejoin="round"/>
<path d="M20.7295 28C20.5537 28.3031 20.3014 28.5547 19.9978 28.7295C19.6941 28.9044 19.3499 28.9965 18.9995 28.9965C18.6492 28.9965 18.3049 28.9044 18.0013 28.7295C17.6977 28.5547 17.4453 28.3031 17.2695 28" stroke="white" stroke-width="1.5" stroke-linecap="round" stroke-linejoin="round"/>
</svg>
