<svg width="188" height="195" viewBox="0 0 188 195" fill="none" xmlns="http://www.w3.org/2000/svg">
<g filter="url(#filter0_d_59_8442)">
<path d="M93.9238 188.528C74.2642 188.528 57.4563 184.583 43.5 176.693C29.721 169.067 18.4889 157.557 11.2013 143.596C3.73375 129.447 0 113.007 0 94.2783C0 75.5492 3.73375 59.1098 11.2013 44.9602C18.4889 30.9994 29.721 19.4898 43.5 11.8639C57.4442 3.97353 74.2521 0.0283203 93.9238 0.0283203C111.698 0.0283203 127.099 3.26061 140.124 9.72519C152.635 15.7424 163.14 25.2465 170.375 37.0939C177.528 48.8752 181.153 62.6985 181.25 78.564H120.839C119.969 68.9819 117.233 61.6654 112.629 56.6146C110.395 54.1401 107.649 52.1821 104.581 50.8768C101.513 49.5715 98.1983 48.9503 94.8663 49.0565C89.4949 48.9574 84.251 50.6968 80.0038 53.9864C75.3361 57.9044 71.8944 63.0827 70.0894 68.9033C67.4887 76.954 66.2632 85.3854 66.4644 93.8433C66.2629 102.295 67.4884 110.721 70.0894 118.765C71.8959 124.575 75.338 129.741 80.0038 133.646C84.251 136.935 89.4949 138.675 94.8663 138.576C99.3284 138.649 103.722 137.475 107.554 135.186C111.431 132.749 114.566 129.295 116.616 125.2C119.104 120.167 120.529 114.676 120.803 109.068H181.25C181.02 125.175 177.395 139.198 170.375 151.136C163.278 163.094 152.838 172.714 140.342 178.813C127.34 185.29 111.868 188.528 93.9238 188.528Z" fill="white"/>
<path d="M43.969 175.863L43.9614 175.859C30.346 168.324 19.2471 156.951 12.046 143.155L12.044 143.152C4.66027 129.161 0.952904 112.879 0.952904 94.2783C0.952904 75.6777 4.66027 59.3958 12.044 45.405L12.046 45.4012C19.2471 31.606 30.346 20.2331 43.9614 12.6977L43.9614 12.6977L43.9693 12.6933C57.7411 4.90039 74.3794 0.981224 93.9238 0.981224C111.584 0.981224 126.833 4.19244 139.701 10.5788L139.711 10.5839C152.056 16.5214 162.421 25.8995 169.561 37.5897C176.468 48.9655 180.054 62.2952 180.287 77.6111H121.704C120.739 68.3221 117.981 61.0727 113.335 55.9743C111.008 53.3979 108.148 51.3592 104.954 50C101.766 48.6436 98.3222 47.9965 94.8599 48.1033C89.2797 48.0058 83.833 49.8153 79.4203 53.2331L79.4055 53.2445L79.3911 53.2566C74.5848 57.2909 71.0405 62.6227 69.1809 68.6158C66.5508 76.7595 65.3103 85.2878 65.5112 93.8433C65.3099 102.393 66.5505 110.916 69.181 119.053C71.0423 125.036 74.5873 130.355 79.3922 134.377L79.406 134.388L79.4203 134.399C83.835 137.818 89.2846 139.628 94.8674 139.529C99.5012 139.601 104.064 138.381 108.042 136.005L108.052 135.999L108.061 135.993C112.086 133.463 115.34 129.877 117.468 125.626L117.471 125.622C119.882 120.743 121.317 115.444 121.701 110.021H180.279C179.923 125.583 176.338 139.116 169.555 150.652C162.552 162.448 152.252 171.94 139.924 177.957L139.917 177.96C127.075 184.358 111.754 187.575 93.9238 187.575C74.3916 187.575 57.7531 183.656 43.969 175.863Z" stroke="#1A243F" stroke-width="1.90581"/>
</g>
<defs>
<filter id="filter0_d_59_8442" x="0" y="0.0283203" width="187.25" height="194.5" filterUnits="userSpaceOnUse" color-interpolation-filters="sRGB">
<feFlood flood-opacity="0" result="BackgroundImageFix"/>
<feColorMatrix in="SourceAlpha" type="matrix" values="0 0 0 0 0 0 0 0 0 0 0 0 0 0 0 0 0 0 127 0" result="hardAlpha"/>
<feOffset dx="6" dy="6"/>
<feComposite in2="hardAlpha" operator="out"/>
<feColorMatrix type="matrix" values="0 0 0 0 0.913725 0 0 0 0 0.447059 0 0 0 0 0.298039 0 0 0 1 0"/>
<feBlend mode="normal" in2="BackgroundImageFix" result="effect1_dropShadow_59_8442"/>
<feBlend mode="normal" in="SourceGraphic" in2="effect1_dropShadow_59_8442" result="shape"/>
</filter>
</defs>
</svg>
