<svg width="68" height="20" viewBox="0 0 68 20" fill="none" xmlns="http://www.w3.org/2000/svg">
<g clip-path="url(#clip0_292_5616)">
<path d="M18.2593 19.0667C17.431 19.0835 16.6097 18.9113 15.8579 18.563C15.1944 18.261 14.6223 17.7892 14.1995 17.1954C13.8027 16.6314 13.5931 15.957 13.6001 15.2675C13.5838 14.7245 13.7064 14.1863 13.9563 13.7039C14.2062 13.2215 14.5751 12.8109 15.0281 12.511C15.9801 11.8394 17.2502 11.3751 18.8386 11.1182L21.9112 10.5037C21.9112 9.87408 21.6593 8.9926 20.4001 8.9926C19.5186 8.9926 19.1408 9.4963 18.763 10.0151L14.3556 10C14.3928 9.46036 14.5425 8.93446 14.7951 8.45616C15.0734 8.0056 15.4335 7.61099 15.8567 7.2926C16.418 6.87071 17.0493 6.55101 17.7216 6.34816C18.615 6.07873 19.5452 5.95125 20.4781 5.97038C21.4222 5.95216 22.3636 6.07526 23.2712 6.33556C23.9758 6.53448 24.6314 6.87752 25.1966 7.34297C25.7005 7.77238 26.0899 8.32017 26.3299 8.93719C26.5809 9.59815 26.7053 10.3005 26.6964 11.0074V19.0667H21.9112V17.3037C21.6779 17.6786 21.3794 18.0087 21.0297 18.2784C20.655 18.5328 20.244 18.7294 19.8107 18.8614C19.3068 19.0072 18.7838 19.0764 18.2593 19.0667ZM19.7704 16.1704C20.6519 16.1704 21.2816 15.5407 21.6593 14.7852C21.8369 14.4301 21.9112 13.7778 21.9112 13.0222C20.9038 13.0222 18.1334 13.5259 18.1334 14.9111C18.1334 15.6667 18.889 16.1704 19.7704 16.1704Z" fill="white"/>
<path d="M27.7041 19.0666V5.97034H32.7411V7.55827C33.2276 7.07248 33.7986 6.67946 34.426 6.39849C35.0943 6.10754 35.8166 5.96161 36.5454 5.97034H38.2819V10.554H34.63C33.7221 10.554 32.7474 11.5476 32.7474 12.4291V19.0666H27.7041Z" fill="white"/>
<path d="M39.2891 19.0666V5.97034H44.3261V7.55827C44.8126 7.07248 45.3835 6.67946 46.011 6.39849C46.6792 6.10754 47.4016 5.96161 48.1303 5.97034H49.8668V10.554H46.215C45.3071 10.554 44.3324 11.5476 44.3324 12.4291V19.0666H39.2891Z" fill="white"/>
<path d="M55.8985 19.0666H50.874V5.97035H55.9111L55.8985 19.0666ZM55.8985 4.96294H50.874V1.43701H55.9111L55.8985 4.96294Z" fill="white"/>
<path d="M56.9189 19.0667V0.93335H61.956V19.0667H56.9189Z" fill="white"/>
<path d="M67.9999 14.0297H62.9629V19.0667H67.9999V14.0297Z" fill="#E9724C"/>
<path d="M6.52548 19.0666C5.15961 19.0666 3.99185 18.7925 3.02222 18.2443C2.06491 17.7145 1.28454 16.9149 0.778222 15.9449C0.259407 14.9619 0 13.8197 0 12.5185C0 11.2173 0.259407 10.0751 0.778222 9.09204C1.28454 8.12209 2.06491 7.32245 3.02222 6.79263C3.99101 6.24444 5.15877 5.97034 6.52548 5.97034C7.7604 5.97034 8.83035 6.1949 9.73533 6.64404C10.6045 7.06209 11.3343 7.72241 11.837 8.54552C12.334 9.36404 12.5859 10.3244 12.5926 11.4267H8.39548C8.33504 10.761 8.14489 10.2527 7.82504 9.90174C7.66983 9.72983 7.47903 9.59379 7.2659 9.50311C7.05278 9.41242 6.82246 9.36926 6.59096 9.37663C6.21778 9.36975 5.85346 9.4906 5.55837 9.71915C5.23408 9.99136 4.99496 10.3511 4.86956 10.7555C4.68887 11.3149 4.60373 11.9006 4.6177 12.4883C4.6037 13.0755 4.68885 13.6609 4.86956 14.2197C4.99507 14.6234 5.23421 14.9823 5.55837 15.2536C5.85346 15.4821 6.21778 15.603 6.59096 15.5961C6.90098 15.6012 7.20625 15.5196 7.47244 15.3606C7.74185 15.1913 7.95963 14.9513 8.10207 14.6668C8.27488 14.3171 8.3739 13.9356 8.39296 13.546H12.5926C12.5766 14.6651 12.3248 15.6393 11.837 16.4688C11.3439 17.2995 10.6186 17.9679 9.75044 18.3917C8.84714 18.8416 7.77215 19.0666 6.52548 19.0666Z" fill="white"/>
</g>
<defs>
<clipPath id="clip0_292_5616">
<rect width="68" height="18.1333" fill="white" transform="translate(0 0.93335)"/>
</clipPath>
</defs>
</svg>
