<svg width="24" height="24" viewBox="0 0 24 24" fill="none" xmlns="http://www.w3.org/2000/svg">
<path d="M18.5303 6.53033L19.0607 6L18 4.93934L17.4697 5.46967L18.5303 6.53033ZM5.46967 17.4697L4.93934 18L6 19.0607L6.53033 18.5303L5.46967 17.4697ZM17.4697 5.46967L5.46967 17.4697L6.53033 18.5303L18.5303 6.53033L17.4697 5.46967Z" fill="#49545C"/>
<path d="M6.53033 5.46967L6 4.93934L4.93934 6L5.46967 6.53033L6.53033 5.46967ZM17.4697 18.5303L18 19.0607L19.0607 18L18.5303 17.4697L17.4697 18.5303ZM5.46967 6.53033L17.4697 18.5303L18.5303 17.4697L6.53033 5.46967L5.46967 6.53033Z" fill="#49545C"/>
</svg>
