<svg width="78" height="71" viewBox="0 0 78 71" fill="none" xmlns="http://www.w3.org/2000/svg">
<path d="M5.38123 0.0755194C4.87065 -0.135028 4.28607 0.108194 4.07552 0.618771L0.644457 8.9391C0.43391 9.44967 0.677132 10.0343 1.18771 10.2448C1.69829 10.4554 2.28287 10.2121 2.49342 9.70155L5.54325 2.30571L12.9391 5.35554C13.4497 5.56609 14.0343 5.32287 14.2448 4.81229C14.4554 4.30171 14.2121 3.71713 13.7016 3.50658L5.38123 0.0755194ZM4.07672 1.38414C8.85951 12.8796 18.263 30.1047 30.9632 44.4747C43.6406 58.819 59.7674 70.5 78 70.5V68.5C60.6326 68.5 45.0094 57.3476 32.4618 43.1503C19.937 28.9786 10.6405 11.9537 5.92328 0.615863L4.07672 1.38414Z" fill="#8C96BF"/>
</svg>
