<svg width="59" height="80" viewBox="0 0 59 80" fill="none" xmlns="http://www.w3.org/2000/svg">
<g clip-path="url(#clip0_770_29092)">
<path d="M54.8656 0H4.13388C1.9225 0 0.231445 1.69106 0.231445 3.90244V55.935L25.3371 80H54.8656C57.077 80 58.768 78.3089 58.768 76.0976V3.90244C58.768 1.69106 57.077 0 54.8656 0Z" fill="#0D5EBD"/>
<path opacity="0.25" fill-rule="evenodd" clip-rule="evenodd" d="M21.4347 55.9355C23.6461 55.9355 25.3371 57.6266 25.3371 59.838V80.0006L25.2498 79.9169L0.231445 56.0652L0.392851 56.0903L0.231451 55.9355H21.4347Z" fill="#F8F9F9"/>
<path d="M9.3262 18.144C10.2622 18.144 11.0542 17.736 11.4382 16.932L11.5342 18H12.5422V9.168H11.4262V13.08C11.0302 12.36 10.2742 11.964 9.3742 11.964C7.6342 11.964 6.5902 13.284 6.5902 15.084C6.5902 16.872 7.6222 18.144 9.3262 18.144ZM9.5542 17.124C8.4022 17.124 7.7302 16.26 7.7302 15.048C7.7302 13.848 8.4022 12.984 9.5542 12.984C10.7062 12.984 11.4142 13.848 11.4142 15.048C11.4142 16.272 10.7062 17.124 9.5542 17.124ZM13.7855 15.06C13.7855 16.872 15.0815 18.144 16.8455 18.144C18.5975 18.144 19.8935 16.872 19.8935 15.06C19.8935 13.248 18.5975 11.976 16.8455 11.976C15.0815 11.976 13.7855 13.248 13.7855 15.06ZM14.9255 15.06C14.9255 13.836 15.7055 12.984 16.8455 12.984C17.9735 12.984 18.7655 13.836 18.7655 15.06C18.7655 16.284 17.9735 17.136 16.8455 17.136C15.7055 17.136 14.9255 16.284 14.9255 15.06ZM20.7582 15.072C20.7582 16.92 21.8982 18.144 23.6262 18.144C25.0422 18.144 26.1342 17.292 26.3622 16.02H25.2342C25.0302 16.716 24.4302 17.136 23.6262 17.136C22.5582 17.136 21.8742 16.32 21.8742 15.06C21.8742 13.788 22.6062 12.972 23.6742 12.972C24.4302 12.972 25.0302 13.368 25.2222 14.112H26.3502C26.1462 12.804 25.1142 11.964 23.6382 11.964C21.9222 11.964 20.7582 13.236 20.7582 15.072Z" fill="white"/>
</g>
<defs>
<clipPath id="clip0_770_29092">
<rect width="58.5366" height="80" fill="white" transform="translate(0.231445)"/>
</clipPath>
</defs>
</svg>
