<svg width="22" height="18" viewBox="0 0 22 18" fill="none" xmlns="http://www.w3.org/2000/svg">
<path d="M1.66699 3.66668H11.0004M1.66699 2.33334V14.3334C1.66699 15.0406 1.94794 15.7189 2.44804 16.219C2.94814 16.7191 3.62642 17.0001 4.33367 17.0001H17.667C18.3743 17.0001 19.0526 16.7191 19.5527 16.219C20.0528 15.7189 20.3337 15.0406 20.3337 14.3334V6.32935C20.3339 5.65672 20.0798 5.00889 19.6223 4.5158C19.1648 4.0227 18.5378 3.72081 17.867 3.67068L17.667 3.66401L11.0004 3.66668L8.33368 1H3.00033C2.64671 1 2.30757 1.14048 2.05752 1.39053C1.80747 1.64058 1.66699 1.97971 1.66699 2.33334V2.33334Z" stroke="#D8DCDE" stroke-width="1.5" stroke-linecap="round" stroke-linejoin="round"/>
</svg>
