<svg width="721" height="900" viewBox="0 0 721 900" fill="none" xmlns="http://www.w3.org/2000/svg">
<rect x="-0.5" y="-0.5" width="721" height="1025" fill="#1A243F" stroke="white"/>
<g filter="url(#filter0_d_59_8437)">
<path d="M347.812 383.527C335.889 383.77 324.068 381.29 313.247 376.277C303.697 371.93 295.463 365.14 289.377 356.593C283.666 348.475 280.649 338.769 280.749 328.844C280.514 321.028 282.279 313.281 285.876 306.338C289.473 299.395 294.783 293.485 301.303 289.168C315.005 279.502 333.288 272.819 356.149 269.122L400.374 260.277C400.374 251.214 396.749 238.527 378.624 238.527C365.937 238.527 360.499 245.777 355.062 253.244L291.624 253.027C292.159 245.26 294.313 237.69 297.95 230.806C301.956 224.321 307.138 218.641 313.229 214.058C321.309 207.986 330.396 203.384 340.072 200.464C352.931 196.587 366.32 194.752 379.748 195.027C393.336 194.765 406.886 196.536 419.949 200.283C430.091 203.146 439.528 208.084 447.662 214.783C454.915 220.964 460.52 228.848 463.975 237.729C467.588 247.243 469.377 257.351 469.249 267.527V383.527H400.374V358.152C397.017 363.548 392.72 368.3 387.687 372.181C382.293 375.843 376.378 378.672 370.142 380.573C362.889 382.671 355.361 383.667 347.812 383.527ZM369.562 341.839C382.249 341.839 391.312 332.777 396.749 321.902C399.305 316.791 400.374 307.402 400.374 296.527C385.874 296.527 345.999 303.777 345.999 323.714C345.999 334.589 356.874 341.839 369.562 341.839Z" fill="white"/>
<path d="M340.347 201.377C353.111 197.528 366.4 195.706 379.728 195.98L379.747 195.98L379.766 195.98C393.259 195.719 406.714 197.479 419.687 201.199L419.69 201.2C429.703 204.027 439.019 208.901 447.05 215.514C454.179 221.59 459.689 229.341 463.085 238.072C466.655 247.472 468.423 257.46 468.296 267.515V267.527V382.574H401.327V358.152V354.817L399.565 357.649C396.273 362.94 392.061 367.6 387.128 371.409C381.821 375.008 376.004 377.789 369.871 379.659C362.711 381.73 355.281 382.713 347.829 382.574L347.811 382.574L347.792 382.574C336.014 382.814 324.337 380.365 313.648 375.412L313.642 375.41C304.245 371.133 296.143 364.452 290.154 356.042C284.56 348.088 281.603 338.578 281.702 328.853L281.702 328.834L281.702 328.815C281.472 321.161 283.2 313.575 286.722 306.776C290.244 299.977 295.444 294.19 301.829 289.963L301.841 289.955L301.852 289.947C315.4 280.389 333.531 273.745 356.301 270.063L356.319 270.06L356.336 270.056L400.561 261.211L401.327 261.058V260.277C401.327 255.646 400.405 249.974 397.063 245.438C393.682 240.85 387.936 237.574 378.624 237.574C372.074 237.574 367.341 239.454 363.549 242.326C359.927 245.069 357.197 248.699 354.578 252.29L292.654 252.078C293.29 244.81 295.371 237.738 298.777 231.279C302.719 224.907 307.814 219.325 313.802 214.82C321.793 208.815 330.778 204.264 340.347 201.377ZM340.347 201.377L340.072 200.464L340.347 201.377ZM401.327 296.527V295.574H400.374C393.02 295.574 379.314 297.404 367.422 301.749C361.476 303.922 355.916 306.747 351.827 310.339C347.727 313.941 345.046 318.374 345.046 323.714C345.046 329.504 347.952 334.302 352.457 337.622C356.95 340.933 363.047 342.792 369.562 342.792C382.773 342.792 392.091 333.349 397.602 322.328C398.949 319.634 399.872 315.888 400.464 311.503C401.059 307.103 401.327 301.992 401.327 296.527Z" stroke="#1A243F" stroke-width="1.90581"/>
</g>
<g filter="url(#filter1_d_59_8437)">
<path d="M483.75 383.528V195.028H556.25V217.883C563.252 210.891 571.47 205.234 580.501 201.19C590.119 197.002 600.516 194.902 611.006 195.028H636V261.003H583.438C570.369 261.003 556.341 275.303 556.341 287.991V383.528H483.75Z" fill="white"/>
<path d="M611.006 195.981H635.047V260.05H583.438C576.573 260.05 569.57 263.789 564.313 269.067C559.058 274.343 555.388 281.318 555.388 287.991V382.575H484.703V195.981H555.297V217.883V220.182L556.923 218.558C563.842 211.649 571.962 206.059 580.886 202.062C590.379 197.929 600.641 195.857 610.994 195.981V195.981H611.006Z" stroke="#1A243F" stroke-width="1.90581"/>
</g>
<g filter="url(#filter2_d_59_8437)">
<path d="M178.924 383.528C159.264 383.528 142.456 379.583 128.5 371.693C114.721 364.067 103.489 352.557 96.2013 338.596C88.7338 324.447 85 308.007 85 289.278C85 270.549 88.7338 254.11 96.2013 239.96C103.489 225.999 114.721 214.49 128.5 206.864C142.444 198.974 159.252 195.028 178.924 195.028C196.698 195.028 212.099 198.261 225.124 204.725C237.635 210.742 248.14 220.247 255.375 232.094C262.528 243.875 266.153 257.699 266.25 273.564H205.839C204.969 263.982 202.233 256.665 197.629 251.615C195.395 249.14 192.649 247.182 189.581 245.877C186.513 244.572 183.198 243.95 179.866 244.056C174.495 243.957 169.251 245.697 165.004 248.986C160.336 252.904 156.894 258.083 155.089 263.903C152.489 271.954 151.263 280.385 151.464 288.843C151.263 297.295 152.488 305.721 155.089 313.765C156.896 319.575 160.338 324.741 165.004 328.646C169.251 331.935 174.495 333.675 179.866 333.576C184.328 333.649 188.722 332.475 192.554 330.186C196.431 327.749 199.566 324.295 201.616 320.2C204.104 315.167 205.529 309.676 205.803 304.068H266.25C266.02 320.175 262.395 334.198 255.375 346.136C248.278 358.094 237.838 367.714 225.342 373.813C212.34 380.29 196.868 383.528 178.924 383.528Z" fill="white"/>
<path d="M128.969 370.863L128.961 370.859C115.346 363.324 104.247 351.951 97.046 338.155L97.044 338.152C89.6603 324.161 85.9529 307.879 85.9529 289.278C85.9529 270.678 89.6603 254.396 97.044 240.405L97.046 240.401C104.247 226.606 115.346 215.233 128.961 207.698L128.961 207.698L128.969 207.693C142.741 199.9 159.379 195.981 178.924 195.981C196.584 195.981 211.833 199.192 224.701 205.579L224.711 205.584C237.056 211.521 247.421 220.899 254.561 232.59C261.468 243.965 265.054 257.295 265.287 272.611H206.704C205.739 263.322 202.981 256.073 198.335 250.974C196.008 248.398 193.148 246.359 189.954 245C186.766 243.644 183.322 242.997 179.86 243.103C174.28 243.006 168.833 244.815 164.42 248.233L164.405 248.245L164.391 248.257C159.585 252.291 156.04 257.623 154.181 263.616C151.551 271.76 150.31 280.288 150.511 288.843C150.31 297.393 151.551 305.916 154.181 314.053C156.042 320.036 159.587 325.355 164.392 329.377L164.406 329.388L164.42 329.399C168.835 332.818 174.285 334.628 179.867 334.529C184.501 334.601 189.064 333.381 193.042 331.005L193.052 330.999L193.061 330.993C197.086 328.463 200.34 324.877 202.468 320.626L202.471 320.622C204.882 315.743 206.317 310.444 206.701 305.021H265.279C264.923 320.583 261.338 334.116 254.555 345.652C247.552 357.448 237.252 366.94 224.924 372.957L224.917 372.96C212.075 379.358 196.754 382.575 178.924 382.575C159.392 382.575 142.753 378.656 128.969 370.863Z" stroke="#1A243F" stroke-width="1.90581"/>
</g>
<g filter="url(#filter3_d_59_8437)">
<path d="M85 705.528V517.028H157.5V539.883C164.502 532.891 172.72 527.234 181.751 523.19C191.369 519.002 201.766 516.902 212.256 517.028H237.25V583.003H184.687C171.619 583.003 157.591 597.303 157.591 609.991V705.528H85Z" fill="white"/>
<path d="M212.256 517.981H236.297V582.05H184.687C177.823 582.05 170.82 585.789 165.563 591.067C160.308 596.343 156.638 603.318 156.638 609.991V704.575H85.9529V517.981H156.547V539.883V542.182L158.173 540.558C165.092 533.649 173.212 528.059 182.136 524.062C191.629 519.929 201.891 517.857 212.244 517.981V517.981H212.256Z" stroke="#1A243F" stroke-width="1.90581"/>
</g>
<g filter="url(#filter4_d_59_8437)">
<path d="M324.069 705.526H251.75V517.026H324.25L324.069 705.526ZM324.069 502.526H251.75V451.776H324.25L324.069 502.526Z" fill="white"/>
<path d="M323.296 517.979L323.117 704.573H252.703V517.979H323.296ZM323.294 452.729L323.119 501.573H252.703V452.729H323.294Z" stroke="#1A243F" stroke-width="1.90581"/>
</g>
<g filter="url(#filter5_d_59_8437)">
<path d="M338.75 705.527V444.527H411.25V705.527H338.75Z" fill="white"/>
<path d="M339.703 704.574V445.48H410.297V704.574H339.703Z" stroke="#1A243F" stroke-width="1.90581"/>
</g>
<g filter="url(#filter6_d_59_8437)">
<path d="M498.25 633.027H425.75V705.527H498.25V633.027Z" fill="#E9724C"/>
<path d="M426.25 705.027V633.527H497.75V705.027H426.25Z" stroke="#1A243F"/>
</g>
<defs>
<filter id="filter0_d_59_8437" x="280.729" y="195" width="194.527" height="194.543" filterUnits="userSpaceOnUse" color-interpolation-filters="sRGB">
<feFlood flood-opacity="0" result="BackgroundImageFix"/>
<feColorMatrix in="SourceAlpha" type="matrix" values="0 0 0 0 0 0 0 0 0 0 0 0 0 0 0 0 0 0 127 0" result="hardAlpha"/>
<feOffset dx="6" dy="6"/>
<feComposite in2="hardAlpha" operator="out"/>
<feColorMatrix type="matrix" values="0 0 0 0 0.913725 0 0 0 0 0.447059 0 0 0 0 0.298039 0 0 0 1 0"/>
<feBlend mode="normal" in2="BackgroundImageFix" result="effect1_dropShadow_59_8437"/>
<feBlend mode="normal" in="SourceGraphic" in2="effect1_dropShadow_59_8437" result="shape"/>
</filter>
<filter id="filter1_d_59_8437" x="483.75" y="195.022" width="158.25" height="194.505" filterUnits="userSpaceOnUse" color-interpolation-filters="sRGB">
<feFlood flood-opacity="0" result="BackgroundImageFix"/>
<feColorMatrix in="SourceAlpha" type="matrix" values="0 0 0 0 0 0 0 0 0 0 0 0 0 0 0 0 0 0 127 0" result="hardAlpha"/>
<feOffset dx="6" dy="6"/>
<feComposite in2="hardAlpha" operator="out"/>
<feColorMatrix type="matrix" values="0 0 0 0 0.913725 0 0 0 0 0.447059 0 0 0 0 0.298039 0 0 0 1 0"/>
<feBlend mode="normal" in2="BackgroundImageFix" result="effect1_dropShadow_59_8437"/>
<feBlend mode="normal" in="SourceGraphic" in2="effect1_dropShadow_59_8437" result="shape"/>
</filter>
<filter id="filter2_d_59_8437" x="85" y="195.028" width="187.25" height="194.5" filterUnits="userSpaceOnUse" color-interpolation-filters="sRGB">
<feFlood flood-opacity="0" result="BackgroundImageFix"/>
<feColorMatrix in="SourceAlpha" type="matrix" values="0 0 0 0 0 0 0 0 0 0 0 0 0 0 0 0 0 0 127 0" result="hardAlpha"/>
<feOffset dx="6" dy="6"/>
<feComposite in2="hardAlpha" operator="out"/>
<feColorMatrix type="matrix" values="0 0 0 0 0.913725 0 0 0 0 0.447059 0 0 0 0 0.298039 0 0 0 1 0"/>
<feBlend mode="normal" in2="BackgroundImageFix" result="effect1_dropShadow_59_8437"/>
<feBlend mode="normal" in="SourceGraphic" in2="effect1_dropShadow_59_8437" result="shape"/>
</filter>
<filter id="filter3_d_59_8437" x="85" y="517.022" width="158.25" height="194.505" filterUnits="userSpaceOnUse" color-interpolation-filters="sRGB">
<feFlood flood-opacity="0" result="BackgroundImageFix"/>
<feColorMatrix in="SourceAlpha" type="matrix" values="0 0 0 0 0 0 0 0 0 0 0 0 0 0 0 0 0 0 127 0" result="hardAlpha"/>
<feOffset dx="6" dy="6"/>
<feComposite in2="hardAlpha" operator="out"/>
<feColorMatrix type="matrix" values="0 0 0 0 0.913725 0 0 0 0 0.447059 0 0 0 0 0.298039 0 0 0 1 0"/>
<feBlend mode="normal" in2="BackgroundImageFix" result="effect1_dropShadow_59_8437"/>
<feBlend mode="normal" in="SourceGraphic" in2="effect1_dropShadow_59_8437" result="shape"/>
</filter>
<filter id="filter4_d_59_8437" x="251.75" y="451.776" width="78.5" height="259.75" filterUnits="userSpaceOnUse" color-interpolation-filters="sRGB">
<feFlood flood-opacity="0" result="BackgroundImageFix"/>
<feColorMatrix in="SourceAlpha" type="matrix" values="0 0 0 0 0 0 0 0 0 0 0 0 0 0 0 0 0 0 127 0" result="hardAlpha"/>
<feOffset dx="6" dy="6"/>
<feComposite in2="hardAlpha" operator="out"/>
<feColorMatrix type="matrix" values="0 0 0 0 0.913725 0 0 0 0 0.447059 0 0 0 0 0.298039 0 0 0 1 0"/>
<feBlend mode="normal" in2="BackgroundImageFix" result="effect1_dropShadow_59_8437"/>
<feBlend mode="normal" in="SourceGraphic" in2="effect1_dropShadow_59_8437" result="shape"/>
</filter>
<filter id="filter5_d_59_8437" x="338.75" y="444.527" width="78.5" height="267" filterUnits="userSpaceOnUse" color-interpolation-filters="sRGB">
<feFlood flood-opacity="0" result="BackgroundImageFix"/>
<feColorMatrix in="SourceAlpha" type="matrix" values="0 0 0 0 0 0 0 0 0 0 0 0 0 0 0 0 0 0 127 0" result="hardAlpha"/>
<feOffset dx="6" dy="6"/>
<feComposite in2="hardAlpha" operator="out"/>
<feColorMatrix type="matrix" values="0 0 0 0 0.913725 0 0 0 0 0.447059 0 0 0 0 0.298039 0 0 0 1 0"/>
<feBlend mode="normal" in2="BackgroundImageFix" result="effect1_dropShadow_59_8437"/>
<feBlend mode="normal" in="SourceGraphic" in2="effect1_dropShadow_59_8437" result="shape"/>
</filter>
<filter id="filter6_d_59_8437" x="425.75" y="633.027" width="78.5" height="78.5" filterUnits="userSpaceOnUse" color-interpolation-filters="sRGB">
<feFlood flood-opacity="0" result="BackgroundImageFix"/>
<feColorMatrix in="SourceAlpha" type="matrix" values="0 0 0 0 0 0 0 0 0 0 0 0 0 0 0 0 0 0 127 0" result="hardAlpha"/>
<feOffset dx="6" dy="6"/>
<feComposite in2="hardAlpha" operator="out"/>
<feColorMatrix type="matrix" values="0 0 0 0 1 0 0 0 0 1 0 0 0 0 1 0 0 0 1 0"/>
<feBlend mode="normal" in2="BackgroundImageFix" result="effect1_dropShadow_59_8437"/>
<feBlend mode="normal" in="SourceGraphic" in2="effect1_dropShadow_59_8437" result="shape"/>
</filter>
</defs>
</svg>
