<svg width="18" height="18" viewBox="0 0 18 18" fill="none" xmlns="http://www.w3.org/2000/svg">
<g clip-path="url(#clip0_59_8432)">
<path d="M16.1171 9.13689C16.1171 8.53945 16.0687 8.10348 15.9638 7.65137H9.1416V10.3479H13.146C13.0653 11.018 12.6294 12.0272 11.6605 12.7054L11.6469 12.7956L13.804 14.4667L13.9534 14.4816C15.3259 13.214 16.1171 11.349 16.1171 9.13689Z" fill="#4285F4"/>
<path d="M9.14154 16.2412C11.1034 16.2412 12.7504 15.5953 13.9534 14.4812L11.6605 12.705C11.0469 13.1329 10.2234 13.4316 9.14154 13.4316C7.22005 13.4316 5.58921 12.1641 5.00785 10.4121L4.92264 10.4193L2.67972 12.1552L2.65039 12.2367C3.84526 14.6103 6.29963 16.2412 9.14154 16.2412Z" fill="#34A853"/>
<path d="M5.00848 10.4124C4.85509 9.9603 4.76631 9.47585 4.76631 8.97531C4.76631 8.47472 4.85509 7.99033 5.00041 7.53821L4.99635 7.44192L2.72532 5.67822L2.65102 5.71357C2.15855 6.69855 1.87598 7.80465 1.87598 8.97531C1.87598 10.146 2.15855 11.252 2.65102 12.237L5.00848 10.4124Z" fill="#FBBC05"/>
<path d="M9.14154 4.51856C10.506 4.51856 11.4263 5.10793 11.9511 5.60045L14.0018 3.59819C12.7424 2.42753 11.1034 1.70898 9.14154 1.70898C6.29963 1.70898 3.84526 3.33983 2.65039 5.71343L4.99978 7.53808C5.58921 5.78612 7.22005 4.51856 9.14154 4.51856Z" fill="#EB4335"/>
</g>
<defs>
<clipPath id="clip0_59_8432">
<rect width="14.25" height="14.5825" fill="white" transform="translate(1.875 1.70898)"/>
</clipPath>
</defs>
</svg>
