<svg width="90" height="74" viewBox="0 0 90 74" fill="none" xmlns="http://www.w3.org/2000/svg">
<path d="M86.235 24.25H82.5V13.75H79.5V7.75H37.629L32.2725 0.25H4.098C1.839 0.25 0 2.089 0 4.348V69.8785H0.009C0.0015 70.723 0.264 71.5495 0.792 72.241C1.527 73.201 2.64 73.75 3.8475 73.75H70.986C72.72 73.75 74.247 72.5815 74.661 71.0305L90 28.9735V28.708C90 26.125 88.416 24.25 86.235 24.25ZM79.5 24.25H67.5V22.75C67.5 21.9205 66.828 21.25 66 21.25C65.172 21.25 64.5 21.9205 64.5 22.75V24.25H57V22.75C57 21.9205 56.328 21.25 55.5 21.25C54.672 21.25 54 21.9205 54 22.75V24.25H46.5V22.75C46.5 21.9205 45.828 21.25 45 21.25C44.172 21.25 43.5 21.9205 43.5 22.75V24.25H36V22.75C36 21.9205 35.328 21.25 34.5 21.25C33.672 21.25 33 21.9205 33 22.75V24.25H25.5V22.75C25.5 21.9205 24.828 21.25 24 21.25C23.172 21.25 22.5 21.9205 22.5 22.75V24.25H19.0965C18.882 24.25 18.6705 24.268 18.4635 24.3025C17.715 24.427 17.0385 24.775 16.5 25.261V16.75H79.5V24.25ZM7.5 48.6895V25.75H16.0425C15.7605 26.1145 15.54 26.524 15.4215 26.9695L14.946 28.2745L7.5 48.6895ZM13.5 22.75H9.621L10.5 21.871L13.5 18.871V22.75ZM76.5 10.75V13.75H14.379L10.5 17.629V10.75H39.7725H76.5ZM3 4.348C3 3.742 3.4935 3.25 4.098 3.25H30.7275L33.942 7.75H7.5V20.629L4.5 23.629V56.7565L3 60.8485V4.348ZM71.8035 70.1245C71.7045 70.492 71.367 70.75 70.986 70.75H3.8475C3.483 70.75 3.27 70.5415 3.1755 70.417C3.081 70.294 2.9355 70.033 2.991 69.805L4.5 65.668V65.6695L18.24 27.9985L18.279 27.8755C18.378 27.508 18.7155 27.25 19.0965 27.25H82.5H86.235C86.805 27.25 86.9505 28.069 86.988 28.4785L71.8035 70.1245Z" fill="#C1C7CC"/>
</svg>
