<svg width="81" height="62" viewBox="0 0 81 62" fill="none" xmlns="http://www.w3.org/2000/svg">
<path d="M76.2182 6.86547H40.3945L40.0732 4.7819C39.7148 2.45481 37.4946 0.550781 35.1398 0.550781H17.9081C15.5533 0.550781 13.3331 2.45481 12.9749 4.7819L12.6537 6.86547H11.4325C9.07803 6.86547 7.15137 8.79213 7.15137 11.1466V57.1671C7.15137 59.5218 9.07803 61.4483 11.4325 61.4483H76.218C78.5725 61.4483 80.4994 59.5218 80.4994 57.1671V11.1469C80.4998 8.79213 78.5727 6.86547 76.2182 6.86547Z" fill="#4C577C"/>
<path d="M73.9018 20.4037C73.528 18.0788 71.2955 16.1768 68.941 16.1768H4.15539C1.80065 16.1768 0.179761 18.0788 0.553645 20.4037L6.47269 57.2212C6.84657 59.5461 9.079 61.4481 11.4335 61.4481H76.2189C78.5734 61.4481 80.1943 59.5461 79.8207 57.2212L73.9018 20.4037Z" fill="#8C96BF"/>
</svg>
