<svg width="15" height="12" viewBox="0 0 15 12" fill="none" xmlns="http://www.w3.org/2000/svg">
<path d="M1.27734 2.44478H7.49959M1.27734 1.55588V9.55591C1.27734 10.0274 1.46465 10.4796 1.79804 10.813C2.13144 11.1464 2.58363 11.3337 3.05513 11.3337H11.944C12.4155 11.3337 12.8677 11.1464 13.2011 10.813C13.5345 10.4796 13.7218 10.0274 13.7218 9.55591V4.21989C13.722 3.77147 13.5525 3.33959 13.2475 3.01086C12.9426 2.68213 12.5246 2.48087 12.0774 2.44744L11.944 2.443L7.49959 2.44478L5.7218 0.666992H2.16624C1.93049 0.666992 1.70439 0.760643 1.53769 0.927343C1.37099 1.09404 1.27734 1.32014 1.27734 1.55588V1.55588Z" stroke="#222F51" stroke-linecap="round" stroke-linejoin="round"/>
</svg>
