<svg width="56" height="76" viewBox="0 0 56 76" fill="none" xmlns="http://www.w3.org/2000/svg">
<mask id="path-1-inside-1_885_7563" fill="white">
<path d="M0 0H56V76H0V0Z"/>
</mask>
<path d="M0 0H56V76H0V0Z" fill="white"/>
<path d="M28 39C28.5523 39 29 38.5523 29 38C29 37.4477 28.5523 37 28 37C27.4477 37 27 37.4477 27 38C27 38.5523 27.4477 39 28 39Z" stroke="#C1C7CC" stroke-width="2" stroke-linecap="round" stroke-linejoin="round"/>
<path d="M35 39C35.5523 39 36 38.5523 36 38C36 37.4477 35.5523 37 35 37C34.4477 37 34 37.4477 34 38C34 38.5523 34.4477 39 35 39Z" stroke="#C1C7CC" stroke-width="2" stroke-linecap="round" stroke-linejoin="round"/>
<path d="M21 39C21.5523 39 22 38.5523 22 38C22 37.4477 21.5523 37 21 37C20.4477 37 20 37.4477 20 38C20 38.5523 20.4477 39 21 39Z" stroke="#C1C7CC" stroke-width="2" stroke-linecap="round" stroke-linejoin="round"/>
<path d="M56 75H0V77H56V75Z" fill="#E9EBED" mask="url(#path-1-inside-1_885_7563)"/>
</svg>
