<svg width="68" height="19" viewBox="0 0 68 19" fill="none" xmlns="http://www.w3.org/2000/svg">
<g clip-path="url(#clip0_264_1725)">
<path d="M18.125 18.4999C17.3027 18.5166 16.4874 18.3456 15.7412 17.9999C15.0826 17.7001 14.5147 17.2319 14.095 16.6424C13.7011 16.0825 13.493 15.4131 13.5 14.7287C13.4838 14.1896 13.6055 13.6554 13.8535 13.1765C14.1016 12.6977 14.4678 12.2901 14.9175 11.9924C15.8625 11.3257 17.1233 10.8649 18.7 10.6099L21.75 9.99991C21.75 9.37491 21.5 8.49991 20.25 8.49991C19.375 8.49991 19 8.99991 18.625 9.51491L14.25 9.49991C14.2868 8.96422 14.4354 8.44219 14.6862 7.96741C14.9625 7.52017 15.3199 7.12845 15.74 6.81241C16.2972 6.39362 16.9239 6.07627 17.5912 5.87491C18.478 5.60746 19.4014 5.48092 20.3275 5.49991C21.2645 5.48183 22.199 5.60401 23.1 5.86241C23.7994 6.05986 24.4502 6.40038 25.0112 6.86241C25.5114 7.28866 25.898 7.83242 26.1362 8.44491C26.3854 9.101 26.5088 9.79814 26.5 10.4999V18.4999H21.75V16.7499C21.5184 17.1221 21.2221 17.4497 20.875 17.7174C20.503 17.97 20.0951 18.1651 19.665 18.2962C19.1647 18.4409 18.6456 18.5096 18.125 18.4999ZM19.625 15.6249C20.5 15.6249 21.125 14.9999 21.5 14.2499C21.6762 13.8974 21.75 13.2499 21.75 12.4999C20.75 12.4999 18 12.9999 18 14.3749C18 15.1249 18.75 15.6249 19.625 15.6249Z" fill="#161E33"/>
<path d="M27.5 18.4999V5.49988H32.5V7.07613C32.9829 6.59391 33.5497 6.20378 34.1725 5.92488C34.8358 5.63607 35.5528 5.49121 36.2762 5.49988H38V10.0499H34.375C33.4738 10.0499 32.5062 11.0361 32.5062 11.9111V18.4999H27.5Z" fill="#161E33"/>
<path d="M39 18.4999V5.49988H44V7.07613C44.4829 6.59391 45.0497 6.20378 45.6725 5.92488C46.3358 5.63607 47.0528 5.49121 47.7762 5.49988H49.5V10.0499H45.875C44.9738 10.0499 44.0062 11.0361 44.0062 11.9111V18.4999H39Z" fill="#161E33"/>
<path d="M55.4875 18.5H50.5V5.5H55.5L55.4875 18.5ZM55.4875 4.5H50.5V1H55.5L55.4875 4.5Z" fill="#161E33"/>
<path d="M56.5 18.5V0.5H61.5V18.5H56.5Z" fill="#161E33"/>
<path d="M67.5 13.5H62.5V18.5H67.5V13.5Z" fill="#E9724C"/>
<path d="M6.4775 18.5C5.12167 18.5 3.9625 18.2279 3 17.6838C2.04973 17.1578 1.27509 16.3641 0.7725 15.4012C0.2575 14.4254 0 13.2917 0 12C0 10.7083 0.2575 9.57458 0.7725 8.59875C1.27509 7.63593 2.04973 6.84217 3 6.31625C3.96167 5.77208 5.12083 5.5 6.4775 5.5C7.70333 5.5 8.76542 5.72292 9.66375 6.16875C10.5265 6.58373 11.251 7.23919 11.75 8.05625C12.2433 8.86875 12.4933 9.82208 12.5 10.9163H8.33375C8.27375 10.2554 8.085 9.75083 7.7675 9.4025C7.61343 9.23185 7.42403 9.09681 7.21248 9.00679C7.00092 8.91677 6.77229 8.87393 6.5425 8.88125C6.17206 8.87442 5.81042 8.99438 5.5175 9.22125C5.19559 9.49145 4.95823 9.84858 4.83375 10.25C4.65439 10.8052 4.56988 11.3867 4.58375 11.97C4.56985 12.5529 4.65437 13.134 4.83375 13.6888C4.95834 14.0894 5.19572 14.4457 5.5175 14.715C5.81042 14.9419 6.17206 15.0618 6.5425 15.055C6.85024 15.06 7.15327 14.9791 7.4175 14.8212C7.68492 14.6532 7.9011 14.4149 8.0425 14.1325C8.21403 13.7854 8.31232 13.4067 8.33125 13.02H12.5C12.4842 14.1308 12.2342 15.0979 11.75 15.9213C11.2605 16.7459 10.5406 17.4094 9.67875 17.83C8.78208 18.2767 7.715 18.5 6.4775 18.5Z" fill="#161E33"/>
</g>
<defs>
<clipPath id="clip0_264_1725">
<rect width="67.5" height="18" fill="white" transform="translate(0 0.5)"/>
</clipPath>
</defs>
</svg>
