<svg width="60" height="80" viewBox="0 0 60 80" fill="none" xmlns="http://www.w3.org/2000/svg">
<g clip-path="url(#clip0_770_29084)">
<path d="M55.6156 0H4.88388C2.6725 0 0.981445 1.69106 0.981445 3.90244V55.935L26.0871 80H55.6156C57.827 80 59.518 78.3089 59.518 76.0976V3.90244C59.518 1.69106 57.827 0 55.6156 0Z" fill="#D93F4C"/>
<path opacity="0.25" fill-rule="evenodd" clip-rule="evenodd" d="M26.0871 80.0001L26.0871 80.0006L25.9974 79.9145L0.981451 56.0652L1.14284 56.0903L0.981445 55.9355H22.1847C24.3961 55.9355 26.0871 57.6266 26.0871 59.838L26.0871 59.9676V80.0001Z" fill="#F8F9F9"/>
<path d="M7.26131 20.628H8.38931V17.04C8.77331 17.76 9.55331 18.156 10.4893 18.156C12.2293 18.156 13.2133 16.812 13.2133 15.024C13.2133 13.224 12.1693 11.964 10.4893 11.964C9.55331 11.964 8.76131 12.384 8.36531 13.188L8.28131 12.132H7.26131V20.628ZM8.40131 15.072C8.40131 13.848 9.09731 12.996 10.2493 12.996C11.4013 12.996 12.0853 13.86 12.0853 15.072C12.0853 16.272 11.4013 17.136 10.2493 17.136C9.09731 17.136 8.40131 16.272 8.40131 15.072ZM16.8086 18.144C17.7446 18.144 18.5366 17.736 18.9206 16.932L19.0166 18H20.0246V9.168H18.9086V13.08C18.5126 12.36 17.7566 11.964 16.8566 11.964C15.1166 11.964 14.0726 13.284 14.0726 15.084C14.0726 16.872 15.1046 18.144 16.8086 18.144ZM17.0366 17.124C15.8846 17.124 15.2126 16.26 15.2126 15.048C15.2126 13.848 15.8846 12.984 17.0366 12.984C18.1886 12.984 18.8966 13.848 18.8966 15.048C18.8966 16.272 18.1886 17.124 17.0366 17.124ZM21.0279 12.132V13.08H21.8919V18H23.0199V13.08H24.4119V12.132H23.0199V11.196C23.0199 10.56 23.2119 10.188 23.9439 10.188H24.4479V9.216C24.2199 9.18 23.9679 9.168 23.7519 9.168C22.6839 9.168 21.8919 9.756 21.8919 11.196V12.132H21.0279Z" fill="white"/>
</g>
<defs>
<clipPath id="clip0_770_29084">
<rect width="58.5366" height="80" fill="white" transform="translate(0.981445)"/>
</clipPath>
</defs>
</svg>
