<svg width="180" height="48" viewBox="0 0 180 48" fill="none" xmlns="http://www.w3.org/2000/svg">
<g clip-path="url(#clip0_111_10695)">
<path d="M48.3334 48.0002C46.1407 48.0449 43.9667 47.5889 41.9767 46.6669C40.2204 45.8675 38.7061 44.6188 37.5867 43.0469C36.5365 41.5539 35.9815 39.7689 36 37.9436C35.9568 36.5061 36.2814 35.0815 36.9429 33.8046C37.6044 32.5277 38.5809 31.4408 39.78 30.6469C42.3 28.8691 45.6623 27.6402 49.8667 26.9602L58 25.3336C58 23.6669 57.3334 21.3336 54 21.3336C51.6667 21.3336 50.6667 22.6669 49.6667 24.0402L38 24.0002C38.0983 22.5717 38.4946 21.1797 39.1634 19.9136C39.9001 18.7209 40.8531 17.6764 41.9734 16.8336C43.4593 15.7168 45.1304 14.8705 46.91 14.3336C49.2749 13.6204 51.7371 13.2829 54.2067 13.3336C56.7055 13.2854 59.1976 13.6112 61.6 14.3002C63.4652 14.8268 65.2007 15.7348 66.6967 16.9669C68.0306 18.1036 69.0614 19.5536 69.6967 21.1869C70.3612 22.9365 70.6902 24.7955 70.6667 26.6669V48.0002H58V43.3336C57.3826 44.326 56.5923 45.1998 55.6667 45.9136C54.6748 46.5872 53.587 47.1074 52.44 47.4569C51.1061 47.8429 49.7217 48.026 48.3334 48.0002ZM52.3334 40.3336C54.6667 40.3336 56.3334 38.6669 57.3334 36.6669C57.8034 35.7269 58 34.0002 58 32.0002C55.3334 32.0002 48 33.3336 48 37.0002C48 39.0002 50 40.3336 52.3334 40.3336Z" fill="#222F51"/>
<path d="M73.3334 48.0002V13.3335H86.6667V17.5368C87.9544 16.2509 89.4658 15.2106 91.1267 14.4668C92.8955 13.6967 94.8076 13.3104 96.7367 13.3335H101.333V25.4668H91.6667C89.2634 25.4668 86.6834 28.0968 86.6834 30.4302V48.0002H73.3334Z" fill="#222F51"/>
<path d="M104 48.0002V13.3335H117.333V17.5368C118.621 16.2509 120.132 15.2106 121.793 14.4668C123.562 13.6967 125.474 13.3104 127.403 13.3335H132V25.4668H122.333C119.93 25.4668 117.35 28.0968 117.35 30.4302V48.0002H104Z" fill="#222F51"/>
<path d="M147.967 48.0002H134.667V13.3335H148L147.967 48.0002ZM147.967 10.6668H134.667V1.3335H148L147.967 10.6668Z" fill="#222F51"/>
<path d="M150.667 48V0H164V48H150.667Z" fill="#222F51"/>
<path d="M180 34.6665H166.667V47.9998H180V34.6665Z" fill="#FDA700"/>
<path d="M17.2733 48.0002C13.6578 48.0002 10.5667 47.2746 8 45.8235C5.46594 44.421 3.40025 42.3043 2.06 39.7368C0.686667 37.1346 0 34.1113 0 30.6668C0 27.2224 0.686667 24.1991 2.06 21.5968C3.40025 19.0293 5.46594 16.9126 8 15.5102C10.5644 14.0591 13.6556 13.3335 17.2733 13.3335C20.5422 13.3335 23.3744 13.9279 25.77 15.1168C28.0707 16.2234 30.0027 17.9713 31.3333 20.1502C32.6489 22.3168 33.3156 24.8591 33.3333 27.7768H22.2233C22.0633 26.0146 21.56 24.6691 20.7133 23.7402C20.3025 23.2851 19.7974 22.925 19.2333 22.6849C18.6691 22.4449 18.0595 22.3306 17.4467 22.3502C16.4588 22.3319 15.4944 22.6518 14.7133 23.2568C13.8549 23.9774 13.222 24.9297 12.89 26.0002C12.4117 27.4808 12.1863 29.0313 12.2233 30.5868C12.1863 32.1412 12.4117 33.6907 12.89 35.1702C13.2222 36.2386 13.8553 37.1887 14.7133 37.9068C15.4944 38.5118 16.4588 38.8317 17.4467 38.8135C18.2673 38.8269 19.0754 38.611 19.78 38.1902C20.4931 37.7419 21.0696 37.1067 21.4467 36.3535C21.9041 35.4279 22.1662 34.4181 22.2167 33.3868H33.3333C33.2911 36.3491 32.6244 38.9279 31.3333 41.1235C30.0281 43.3225 28.1081 45.0918 25.81 46.2135C23.4189 47.4046 20.5733 48.0002 17.2733 48.0002Z" fill="#222F51"/>
</g>
<defs>
<clipPath id="clip0_111_10695">
<rect width="180" height="48" fill="white"/>
</clipPath>
</defs>
</svg>
