<svg width="60" height="80" viewBox="0 0 60 80" fill="none" xmlns="http://www.w3.org/2000/svg">
<g clip-path="url(#clip0_770_29076)">
<path d="M55.1156 0H4.38388C2.1725 0 0.481445 1.69106 0.481445 3.90244V55.935L25.5871 80H55.1156C57.327 80 59.018 78.3089 59.018 76.0976V3.90244C59.018 1.69106 57.327 0 55.1156 0Z" fill="#724CA4"/>
<path opacity="0.25" fill-rule="evenodd" clip-rule="evenodd" d="M25.5871 80.0001V80.0006L25.4984 79.9155L0.481445 56.0652L0.642844 56.0903L0.481445 55.9355H21.6847C23.8961 55.9355 25.5871 57.6266 25.5871 59.838V59.9676V80.0001Z" fill="#F8F9F9"/>
<path d="M5.81745 16.296C5.81745 17.412 6.69345 18.144 8.07345 18.144C9.46545 18.144 10.4254 17.436 10.4254 16.32C10.4254 15.444 9.93345 14.988 8.93745 14.748L7.90545 14.496C7.32945 14.352 7.04145 14.088 7.04145 13.692C7.04145 13.152 7.43745 12.84 8.14545 12.84C8.82945 12.84 9.22545 13.212 9.24945 13.8H10.3294C10.3054 12.684 9.46545 11.964 8.18145 11.964C6.88545 11.964 5.97345 12.648 5.97345 13.728C5.97345 14.592 6.46545 15.108 7.50945 15.36L8.54145 15.6C9.15345 15.756 9.34545 15.996 9.34545 16.392C9.34545 16.932 8.88945 17.256 8.09745 17.256C7.35345 17.256 6.89745 16.896 6.89745 16.296H5.81745ZM13.1446 18H14.2606L16.7086 12.132H15.5326L14.2246 15.408C14.0206 15.924 13.8286 16.428 13.7326 16.812C13.6366 16.452 13.4686 15.96 13.2646 15.408L11.9806 12.132H10.7806L13.1446 18ZM16.9645 14.916C16.9645 16.56 18.0205 17.844 19.6885 17.844C20.6125 17.844 21.3805 17.436 21.7645 16.752V17.928C21.7645 19.044 21.0445 19.764 19.9405 19.764C18.9565 19.764 18.3085 19.26 18.1645 18.396H17.0365C17.2525 19.884 18.3445 20.784 19.9405 20.784C21.7405 20.784 22.8805 19.608 22.8805 17.76V12.132H21.8725L21.7885 13.128C21.4165 12.396 20.6845 11.964 19.7365 11.964C18.0325 11.964 16.9645 13.26 16.9645 14.916ZM18.0925 14.892C18.0925 13.812 18.7645 12.948 19.8925 12.948C21.0445 12.948 21.7165 13.764 21.7165 14.892C21.7165 16.044 21.0205 16.86 19.8805 16.86C18.7765 16.86 18.0925 15.996 18.0925 14.892Z" fill="white"/>
</g>
<defs>
<clipPath id="clip0_770_29076">
<rect width="58.5366" height="80" fill="white" transform="translate(0.481445)"/>
</clipPath>
</defs>
</svg>
