<svg width="48" height="30" viewBox="0 0 48 30" fill="none" xmlns="http://www.w3.org/2000/svg">
<path d="M30.4901 26.793H17.5107V3.20699H30.4901V26.793Z" fill="#FF5F00"/>
<path d="M18.3347 15C18.3327 17.2715 18.8417 19.5137 19.8233 21.5569C20.8049 23.6 22.2332 25.3906 24.0003 26.793C21.812 28.5323 19.184 29.614 16.4166 29.9143C13.6491 30.2147 10.854 29.7216 8.35055 28.4915C5.84712 27.2614 3.73644 25.3439 2.25976 22.9581C0.783091 20.5723 0 17.8146 0 15C0 12.1854 0.783091 9.42766 2.25976 7.04188C3.73644 4.6561 5.84712 2.73857 8.35055 1.50846C10.854 0.278356 13.6491 -0.214694 16.4166 0.0856695C19.184 0.386033 21.812 1.46769 24.0003 3.20701C22.2333 4.60943 20.8049 6.39999 19.8233 8.44314C18.8417 10.4863 18.3327 12.7285 18.3347 15V15Z" fill="#EB001B"/>
<path d="M47.9995 15C47.9997 12.1855 47.2167 9.42772 45.7401 7.04194C44.2635 4.65615 42.1529 2.73861 39.6495 1.50849C37.1461 0.278373 34.351 -0.214685 31.5836 0.0856748C28.8162 0.386035 26.1882 1.46769 24 3.20701C25.7655 4.61084 27.1928 6.4017 28.1742 8.44453C29.1556 10.4874 29.6655 12.7289 29.6655 15C29.6655 17.2712 29.1556 19.5126 28.1742 21.5555C27.1928 23.5983 25.7655 25.3892 24 26.793C26.1882 28.5323 28.8162 29.614 31.5836 29.9143C34.351 30.2147 37.1461 29.7216 39.6495 28.4915C42.1529 27.2614 44.2635 25.3439 45.7401 22.9581C47.2167 20.5723 47.9997 17.8145 47.9995 15V15Z" fill="#F79E1B"/>
<path d="M46.5849 6.28729V5.80441H46.7775V5.70604H46.2871V5.80441H46.4797V6.28729H46.5849ZM47.537 6.28729V5.70508H47.3866L47.2138 6.10555L47.0408 5.70508H46.8904V6.28729H46.9966V5.84813L47.1587 6.22675H47.2688L47.4309 5.84716V6.28729H47.537Z" fill="#F79E1B"/>
</svg>
