<svg width="60" height="80" viewBox="0 0 60 80" fill="none" xmlns="http://www.w3.org/2000/svg">
<g clip-path="url(#clip0_770_29100)">
<path d="M55.3661 0H4.63437C2.42299 0 0.731934 1.69106 0.731934 3.90244V55.935L25.8376 80H55.3661C57.5775 80 59.2685 78.3089 59.2685 76.0976V3.90244C59.2685 1.69106 57.5775 0 55.3661 0Z" fill="#A6A6A6"/>
<path opacity="0.25" fill-rule="evenodd" clip-rule="evenodd" d="M25.8376 80.0001V80.0006L25.7489 79.9155L0.731934 56.0652L0.893332 56.0903L0.731934 55.9355H21.9352C24.1466 55.9355 25.8376 57.6266 25.8376 59.838V59.9676V80.0001Z" fill="#F8F9F9"/>
<path d="M11.5501 16.824C11.2981 16.944 11.0461 16.992 10.7581 16.992C10.1101 16.992 9.69007 16.68 9.69007 15.804V12.672H11.6101V11.64H9.69007V9.756H8.47807V11.64H7.07407V12.672H8.47807V16.08C8.47807 17.484 9.29407 18.12 10.4701 18.12C10.8541 18.12 11.1781 18.06 11.5501 17.892V16.824ZM13.4268 18L15.1068 15.468L16.8108 18H18.2028L15.9708 14.784L18.0588 11.64H16.7508L15.1788 14.04L13.6068 11.64H12.2028L14.3148 14.748L12.0588 18H13.4268ZM22.7649 16.824C22.5129 16.944 22.2609 16.992 21.9729 16.992C21.3249 16.992 20.9049 16.68 20.9049 15.804V12.672H22.8249V11.64H20.9049V9.756H19.6929V11.64H18.2889V12.672H19.6929V16.08C19.6929 17.484 20.5089 18.12 21.6849 18.12C22.0689 18.12 22.3929 18.06 22.7649 17.892V16.824Z" fill="white"/>
</g>
<defs>
<clipPath id="clip0_770_29100">
<rect width="58.5366" height="80" fill="white" transform="translate(0.731934)"/>
</clipPath>
</defs>
</svg>
