<svg width="12" height="6" viewBox="0 0 12 6" fill="none" xmlns="http://www.w3.org/2000/svg">
<path d="M1.11357 4.5147L0.733941 4.8401L1.38473 5.59935L1.76436 5.27396L1.11357 4.5147ZM5.67177 1.26621L5.34637 0.88658L5.34637 0.88658L5.67177 1.26621ZM6.53949 1.26621L6.86489 0.88658V0.88658L6.53949 1.26621ZM10.4469 5.27396L10.8265 5.59935L11.4773 4.8401L11.0977 4.5147L10.4469 5.27396ZM1.76436 5.27396L5.99717 1.64584L5.34637 0.88658L1.11357 4.5147L1.76436 5.27396ZM6.2141 1.64584L10.4469 5.27396L11.0977 4.5147L6.86489 0.88658L6.2141 1.64584ZM5.99717 1.64584C6.05958 1.59234 6.15168 1.59234 6.2141 1.64584L6.86489 0.88658C6.42798 0.51209 5.78328 0.512091 5.34637 0.88658L5.99717 1.64584Z" fill="white"/>
</svg>
