<svg width="60" height="16" viewBox="0 0 60 16" fill="none" xmlns="http://www.w3.org/2000/svg">
<g clip-path="url(#clip0_814_2226)">
<path d="M16.1114 16.0001C15.3805 16.015 14.6558 15.863 13.9925 15.5556C13.4071 15.2892 12.9023 14.8729 12.5292 14.349C12.1791 13.8513 11.9941 13.2563 12.0003 12.6479C11.9859 12.1687 12.0941 11.6938 12.3146 11.2682C12.5351 10.8426 12.8606 10.4803 13.2603 10.2156C14.1003 9.62304 15.221 9.21341 16.6225 8.98675L19.3336 8.44452C19.3336 7.88897 19.1114 7.11119 18.0003 7.11119C17.2225 7.11119 16.8892 7.55563 16.5558 8.01341L12.667 8.00008C12.6997 7.52392 12.8318 7.05989 13.0547 6.63786C13.3003 6.24031 13.618 5.89212 13.9914 5.61119C14.4867 5.23893 15.0438 4.95684 15.637 4.77786C16.4253 4.54013 17.246 4.42765 18.0692 4.44452C18.9021 4.42845 19.7328 4.53706 20.5336 4.76675C21.1553 4.94226 21.7338 5.24494 22.2325 5.65563C22.6771 6.03453 23.0207 6.51787 23.2325 7.0623C23.454 7.64549 23.5637 8.26518 23.5558 8.88897V16.0001H19.3336V14.4445C19.1278 14.7753 18.8644 15.0666 18.5558 15.3045C18.2252 15.5291 17.8626 15.7025 17.4803 15.819C17.0357 15.9476 16.5742 16.0087 16.1114 16.0001ZM17.4447 13.4445C18.2225 13.4445 18.7781 12.889 19.1114 12.2223C19.2681 11.909 19.3336 11.3334 19.3336 10.6667C18.4447 10.6667 16.0003 11.1112 16.0003 12.3334C16.0003 13.0001 16.667 13.4445 17.4447 13.4445Z" fill="white"/>
<path d="M24.4443 16V4.44442H28.8888V5.84553C29.318 5.41689 29.8218 5.07011 30.3754 4.8222C30.9651 4.56547 31.6024 4.43671 32.2454 4.44442H33.7777V8.48886H30.5554C29.7543 8.48886 28.8943 9.36553 28.8943 10.1433V16H24.4443Z" fill="white"/>
<path d="M34.667 16V4.44442H39.1114V5.84553C39.5407 5.41689 40.0445 5.07011 40.5981 4.8222C41.1877 4.56547 41.8251 4.43671 42.4681 4.44442H44.0003V8.48886H40.7781C39.977 8.48886 39.117 9.36553 39.117 10.1433V16H34.667Z" fill="white"/>
<path d="M49.322 15.9999H44.8887V4.44434H49.3331L49.322 15.9999ZM49.322 3.55545H44.8887V0.444336H49.3331L49.322 3.55545Z" fill="white"/>
<path d="M50.2227 16V0H54.6671V16H50.2227Z" fill="white"/>
<path d="M60.0001 11.5557H55.5557V16.0001H60.0001V11.5557Z" fill="#FDA700"/>
<path d="M5.75778 15.9999C4.55259 15.9999 3.52222 15.758 2.66667 15.2743C1.82198 14.8068 1.13342 14.1013 0.686667 13.2454C0.228889 12.378 0 11.3703 0 10.2221C0 9.07397 0.228889 8.06619 0.686667 7.19878C1.13342 6.34294 1.82198 5.63738 2.66667 5.16989C3.52148 4.68619 4.55185 4.44434 5.75778 4.44434C6.84741 4.44434 7.79148 4.64248 8.59 5.03878C9.35691 5.40765 10.0009 5.99028 10.4444 6.71656C10.883 7.43878 11.1052 8.28619 11.1111 9.25878H7.40778C7.35444 8.67137 7.18667 8.22285 6.90444 7.91322C6.7675 7.76153 6.59914 7.6415 6.41109 7.56148C6.22304 7.48147 6.01982 7.44339 5.81556 7.44989C5.48628 7.44382 5.16481 7.55045 4.90444 7.75211C4.6183 7.99229 4.40732 8.30974 4.29667 8.66656C4.13724 9.16009 4.06211 9.67695 4.07444 10.1954C4.06209 10.7136 4.13722 11.2301 4.29667 11.7232C4.40741 12.0794 4.61842 12.3961 4.90444 12.6354C5.16481 12.8371 5.48628 12.9437 5.81556 12.9377C6.0891 12.9421 6.35846 12.8702 6.59333 12.7299C6.83104 12.5805 7.0232 12.3687 7.14889 12.1177C7.30136 11.8091 7.38873 11.4725 7.40556 11.1288H11.1111C11.097 12.1162 10.8748 12.9758 10.4444 13.7077C10.0094 14.4407 9.36938 15.0304 8.60333 15.4043C7.8063 15.8014 6.85778 15.9999 5.75778 15.9999Z" fill="white"/>
</g>
<defs>
<clipPath id="clip0_814_2226">
<rect width="60" height="16" fill="white"/>
</clipPath>
</defs>
</svg>
